<?xml version="1.0" encoding="UTF-8" standalone="no"?>
<!DOCTYPE svg PUBLIC "-//W3C//DTD SVG 1.1//EN"
 "http://www.w3.org/Graphics/SVG/1.1/DTD/svg11.dtd">
<!-- Generated by graphviz version 12.2.1 (20241206.2353)
 -->
<!-- Pages: 1 -->
<svg width="825pt" height="260pt"
 viewBox="0.00 0.00 824.81 260.00" xmlns="http://www.w3.org/2000/svg" xmlns:xlink="http://www.w3.org/1999/xlink">
<g id="graph0" class="graph" transform="scale(1 1) rotate(0) translate(4 256)">
<polygon fill="white" stroke="none" points="-4,4 -4,-256 820.81,-256 820.81,4 -4,4"/>
<!-- [root] @repo/eslint&#45;config#build -->
<g id="node1" class="node">
<title>[root] @repo/eslint&#45;config#build</title>
<ellipse fill="none" stroke="black" cx="132.22" cy="-90" rx="132.22" ry="18"/>
<text text-anchor="middle" x="132.22" y="-84.95" font-family="Times,serif" font-size="14.00">[root] @repo/eslint&#45;config#build</text>
</g>
<!-- [root] ___ROOT___ -->
<g id="node2" class="node">
<title>[root] ___ROOT___</title>
<ellipse fill="none" stroke="black" cx="392.22" cy="-18" rx="87.18" ry="18"/>
<text text-anchor="middle" x="392.22" y="-12.95" font-family="Times,serif" font-size="14.00">[root] ___ROOT___</text>
</g>
<!-- [root] @repo/eslint&#45;config#build&#45;&gt;[root] ___ROOT___ -->
<g id="edge1" class="edge">
<title>[root] @repo/eslint&#45;config#build&#45;&gt;[root] ___ROOT___</title>
<path fill="none" stroke="black" d="M190.24,-73.38C231.6,-62.24 287.14,-47.29 329.51,-35.88"/>
<polygon fill="black" stroke="black" points="330.33,-39.29 339.07,-33.31 328.51,-32.53 330.33,-39.29"/>
</g>
<!-- [root] @repo/tokens#build -->
<g id="node3" class="node">
<title>[root] @repo/tokens#build</title>
<ellipse fill="none" stroke="black" cx="392.22" cy="-90" rx="109.7" ry="18"/>
<text text-anchor="middle" x="392.22" y="-84.95" font-family="Times,serif" font-size="14.00">[root] @repo/tokens#build</text>
</g>
<!-- [root] @repo/tokens#build&#45;&gt;[root] ___ROOT___ -->
<g id="edge2" class="edge">
<title>[root] @repo/tokens#build&#45;&gt;[root] ___ROOT___</title>
<path fill="none" stroke="black" d="M392.22,-71.7C392.22,-64.41 392.22,-55.73 392.22,-47.54"/>
<polygon fill="black" stroke="black" points="395.72,-47.62 392.22,-37.62 388.72,-47.62 395.72,-47.62"/>
</g>
<!-- [root] @repo/typescript&#45;config#build -->
<g id="node4" class="node">
<title>[root] @repo/typescript&#45;config#build</title>
<ellipse fill="none" stroke="black" cx="668.22" cy="-90" rx="148.59" ry="18"/>
<text text-anchor="middle" x="668.22" y="-84.95" font-family="Times,serif" font-size="14.00">[root] @repo/typescript&#45;config#build</text>
</g>
<!-- [root] @repo/typescript&#45;config#build&#45;&gt;[root] ___ROOT___ -->
<g id="edge3" class="edge">
<title>[root] @repo/typescript&#45;config#build&#45;&gt;[root] ___ROOT___</title>
<path fill="none" stroke="black" d="M605.93,-73.2C561.52,-61.94 501.96,-46.83 457,-35.43"/>
<polygon fill="black" stroke="black" points="457.92,-32.05 447.36,-32.99 456.2,-38.84 457.92,-32.05"/>
</g>
<!-- [root] @repo/ui#build -->
<g id="node5" class="node">
<title>[root] @repo/ui#build</title>
<ellipse fill="none" stroke="black" cx="330.22" cy="-162" rx="92.81" ry="18"/>
<text text-anchor="middle" x="330.22" y="-156.95" font-family="Times,serif" font-size="14.00">[root] @repo/ui#build</text>
</g>
<!-- [root] @repo/ui#build&#45;&gt;[root] @repo/eslint&#45;config#build -->
<g id="edge4" class="edge">
<title>[root] @repo/ui#build&#45;&gt;[root] @repo/eslint&#45;config#build</title>
<path fill="none" stroke="black" d="M286.77,-145.64C258.05,-135.49 220.11,-122.07 189.01,-111.08"/>
<polygon fill="black" stroke="black" points="190.35,-107.84 179.75,-107.81 188.01,-114.44 190.35,-107.84"/>
</g>
<!-- [root] @repo/ui#build&#45;&gt;[root] @repo/tokens#build -->
<g id="edge5" class="edge">
<title>[root] @repo/ui#build&#45;&gt;[root] @repo/tokens#build</title>
<path fill="none" stroke="black" d="M345.23,-144.05C352.5,-135.84 361.4,-125.79 369.49,-116.66"/>
<polygon fill="black" stroke="black" points="371.9,-119.21 375.91,-109.41 366.66,-114.57 371.9,-119.21"/>
</g>
<!-- [root] @repo/ui#build&#45;&gt;[root] @repo/typescript&#45;config#build -->
<g id="edge6" class="edge">
<title>[root] @repo/ui#build&#45;&gt;[root] @repo/typescript&#45;config#build</title>
<path fill="none" stroke="black" d="M391.82,-148.24C445.77,-137.07 524.67,-120.73 584.37,-108.36"/>
<polygon fill="black" stroke="black" points="584.72,-111.87 593.8,-106.41 583.3,-105.01 584.72,-111.87"/>
</g>
<!-- [root] web#build -->
<g id="node6" class="node">
<title>[root] web#build</title>
<ellipse fill="none" stroke="black" cx="390.22" cy="-234" rx="73.36" ry="18"/>
<text text-anchor="middle" x="390.22" y="-228.95" font-family="Times,serif" font-size="14.00">[root] web#build</text>
</g>
<!-- [root] web#build&#45;&gt;[root] @repo/eslint&#45;config#build -->
<g id="edge7" class="edge">
<title>[root] web#build&#45;&gt;[root] @repo/eslint&#45;config#build</title>
<path fill="none" stroke="black" d="M335.96,-221.49C303.26,-213.08 261.63,-199.66 228.22,-180 199.51,-163.11 172.21,-136.39 154.11,-116.63"/>
<polygon fill="black" stroke="black" points="156.76,-114.34 147.48,-109.23 151.55,-119.01 156.76,-114.34"/>
</g>
<!-- [root] web#build&#45;&gt;[root] @repo/tokens#build -->
<g id="edge8" class="edge">
<title>[root] web#build&#45;&gt;[root] @repo/tokens#build</title>
<path fill="none" stroke="black" d="M408.38,-216.22C417.43,-206.61 427.43,-193.75 432.22,-180 437.48,-164.89 437.3,-159.17 432.22,-144 428.95,-134.26 423.11,-124.88 416.89,-116.78"/>
<polygon fill="black" stroke="black" points="419.58,-114.55 410.5,-109.1 414.2,-119.02 419.58,-114.55"/>
</g>
<!-- [root] web#build&#45;&gt;[root] @repo/typescript&#45;config#build -->
<g id="edge9" class="edge">
<title>[root] web#build&#45;&gt;[root] @repo/typescript&#45;config#build</title>
<path fill="none" stroke="black" d="M421.03,-217.26C470.67,-191.9 568.49,-141.94 625.05,-113.05"/>
<polygon fill="black" stroke="black" points="626.45,-116.26 633.76,-108.6 623.27,-110.03 626.45,-116.26"/>
</g>
<!-- [root] web#build&#45;&gt;[root] @repo/ui#build -->
<g id="edge10" class="edge">
<title>[root] web#build&#45;&gt;[root] @repo/ui#build</title>
<path fill="none" stroke="black" d="M375.69,-216.05C368.54,-207.71 359.78,-197.49 351.86,-188.25"/>
<polygon fill="black" stroke="black" points="354.76,-186.25 345.59,-180.94 349.44,-190.81 354.76,-186.25"/>
</g>
</g>
</svg>
